P2
2 5 255
0 1 0 1 0 1 0 1 0 1
