P2
3 2 255
255 4 255 
0 0 5 
