P2
3 2 255
255 0 255 
26 0 0 
