P3
6 105 255 
255 0 0 255 0 0 0 255 255 255 0 255 255 255 0 0 0 0
255 0 0 255 0 0 0 255 255 255 0 255 255 255 0 0 0 0
255 0 0 255 0 0 0 255 255 255 0 255 255 255 0 0 0 0
255 0 0 255 0 0 0 255 255 255 0 255 255 255 0 0 0 0
255 0 0 255 0 0 0 255 255 255 0 255 255 255 0 0 0 0
255 0 0 255 0 0 0 255 255 255 0 255 255 255 0 0 0 0
255 0 0 255 0 0 0 255 255 255 0 255 255 255 0 0 0 0
255 0 0 255 0 0 0 255 255 255 0 255 255 255 0 0 0 0
255 0 0 255 0 0 0 255 255 255 0 255 255 255 0 0 0 0
255 0 0 255 0 0 0 255 255 255 0 255 255 255 0 0 0 0
255 0 0 255 0 0 0 255 255 255 0 255 255 255 0 0 0 0
255 0 0 255 0 0 0 255 255 255 0 255 255 255 0 0 0 0
255 0 0 255 0 0 0 255 255 255 0 255 255 255 0 0 0 0
255 0 0 255 0 0 0 255 255 255 0 255 255 255 0 0 0 0
255 0 0 255 0 0 0 255 255 255 0 255 255 255 0 0 0 0
255 0 0 255 0 0 0 255 255 255 0 255 255 255 0 0 0 0
255 0 0 255 0 0 0 255 255 255 0 255 255 255 0 0 0 0
255 0 0 255 0 0 0 255 255 255 0 255 255 255 0 0 0 0
255 0 0 255 0 0 0 255 255 255 0 255 255 255 0 0 0 0
255 0 0 255 0 0 0 255 255 255 0 255 255 255 0 0 0 0
255 0 0 255 0 0 0 255 255 255 0 255 255 255 0 0 0 0
255 0 0 255 0 0 0 255 255 255 0 255 255 255 0 0 0 0
255 0 0 255 0 0 0 255 255 255 0 255 255 255 0 0 0 0
255 0 0 255 0 0 0 255 255 255 0 255 255 255 0 0 0 0
255 0 0 255 0 0 0 255 255 255 0 255 255 255 0 0 0 0
255 0 0 255 0 0 0 255 255 255 0 255 255 255 0 0 0 0
255 0 0 255 0 0 0 255 255 255 0 255 255 255 0 0 0 0
255 0 0 255 0 0 0 255 255 255 0 255 255 255 0 0 0 0
255 0 0 255 0 0 0 255 255 255 0 255 255 255 0 0 0 0
255 0 0 255 0 0 0 255 255 255 0 255 255 255 0 0 0 0
255 0 0 255 0 0 0 255 255 255 0 255 255 255 0 0 0 0
255 0 0 255 0 0 0 255 255 255 0 255 255 255 0 0 0 0
255 0 0 255 0 0 0 255 255 255 0 255 255 255 0 0 0 0
255 0 0 255 0 0 0 255 255 255 0 255 255 255 0 0 0 0
255 0 0 255 0 0 0 255 255 255 0 255 255 255 0 0 0 0
255 0 0 255 0 0 0 255 255 255 0 255 255 255 0 0 0 0
255 0 0 255 0 0 0 255 255 255 0 255 255 255 0 0 0 0
255 0 0 255 0 0 0 255 255 255 0 255 255 255 0 0 0 0
255 0 0 255 0 0 0 255 255 255 0 255 255 255 0 0 0 0
255 0 0 255 0 0 0 255 255 255 0 255 255 255 0 0 0 0
255 0 0 255 0 0 0 255 255 255 0 255 255 255 0 0 0 0
255 0 0 255 0 0 0 255 255 255 0 255 255 255 0 0 0 0
255 0 0 255 0 0 0 255 255 255 0 255 255 255 0 0 0 0
255 0 0 255 0 0 0 255 255 255 0 255 255 255 0 0 0 0
255 0 0 255 0 0 0 255 255 255 0 255 255 255 0 0 0 0
255 0 0 255 0 0 0 255 255 255 0 255 255 255 0 0 0 0
255 0 0 255 0 0 0 255 255 255 0 255 255 255 0 0 0 0
255 0 0 255 0 0 0 255 255 255 0 255 255 255 0 0 0 0
255 0 0 255 0 0 0 255 255 255 0 255 255 255 0 0 0 0
255 0 0 255 0 0 0 255 255 255 0 255 255 255 0 0 0 0
255 0 0 255 0 0 0 255 255 255 0 255 255 255 0 0 0 0
255 0 0 255 0 0 0 255 255 255 0 255 255 255 0 0 0 0
255 0 0 255 0 0 0 255 255 255 0 255 255 255 0 0 0 0
255 0 0 255 0 0 0 255 255 255 0 255 255 255 0 0 0 0
255 0 0 255 0 0 0 255 255 255 0 255 255 255 0 0 0 0
255 0 0 255 0 0 0 255 255 255 0 255 255 255 0 0 0 0
255 0 0 255 0 0 0 255 255 255 0 255 255 255 0 0 0 0
255 0 0 255 0 0 0 255 255 255 0 255 255 255 0 0 0 0
255 0 0 255 0 0 0 255 255 255 0 255 255 255 0 0 0 0
255 0 0 255 0 0 0 255 255 255 0 255 255 255 0 0 0 0
255 0 0 255 0 0 0 255 255 255 0 255 255 255 0 0 0 0
255 0 0 255 0 0 0 255 255 255 0 255 255 255 0 0 0 0
255 0 0 255 0 0 0 255 255 255 0 255 255 255 0 0 0 0
255 0 0 255 0 0 0 255 255 255 0 255 255 255 0 0 0 0
255 0 0 255 0 0 0 255 255 255 0 255 255 255 0 0 0 0
255 0 0 255 0 0 0 255 255 255 0 255 255 255 0 0 0 0
255 0 0 255 0 0 0 255 255 255 0 255 255 255 0 0 0 0
255 0 0 255 0 0 0 255 255 255 0 255 255 255 0 0 0 0
255 0 0 255 0 0 0 255 255 255 0 255 255 255 0 0 0 0
255 0 0 255 0 0 0 255 255 255 0 255 255 255 0 0 0 0
255 0 0 255 0 0 0 255 255 255 0 255 255 255 0 0 0 0
255 0 0 255 0 0 0 255 255 255 0 255 255 255 0 0 0 0
255 0 0 255 0 0 0 255 255 255 0 255 255 255 0 0 0 0
255 0 0 255 0 0 0 255 255 255 0 255 255 255 0 0 0 0
255 0 0 255 0 0 0 255 255 255 0 255 255 255 0 0 0 0
255 0 0 255 0 0 0 255 255 255 0 255 255 255 0 0 0 0
255 0 0 255 0 0 0 255 255 255 0 255 255 255 0 0 0 0
255 0 0 255 0 0 0 255 255 255 0 255 255 255 0 0 0 0
255 0 0 255 0 0 0 255 255 255 0 255 255 255 0 0 0 0
255 0 0 255 0 0 0 255 255 255 0 255 255 255 0 0 0 0
255 0 0 255 0 0 0 255 255 255 0 255 255 255 0 0 0 0
255 0 0 255 0 0 0 255 255 255 0 255 255 255 0 0 0 0
255 0 0 255 0 0 0 255 255 255 0 255 255 255 0 0 0 0
255 0 0 255 0 0 0 255 255 255 0 255 255 255 0 0 0 0
255 0 0 255 0 0 0 255 255 255 0 255 255 255 0 0 0 0
255 0 0 255 0 0 0 255 255 255 0 255 255 255 0 0 0 0
255 0 0 255 0 0 0 255 255 255 0 255 255 255 0 0 0 0
255 0 0 255 0 0 0 255 255 255 0 255 255 255 0 0 0 0
255 0 0 255 0 0 0 255 255 255 0 255 255 255 0 0 0 0
255 0 0 255 0 0 0 255 255 255 0 255 255 255 0 0 0 0
255 0 0 255 0 0 0 255 255 255 0 255 255 255 0 0 0 0
255 0 0 255 0 0 0 255 255 255 0 255 255 255 0 0 0 0
255 0 0 255 0 0 0 255 255 255 0 255 255 255 0 0 0 0
255 0 0 255 0 0 0 255 255 255 0 255 255 255 0 0 0 0
255 0 0 255 0 0 0 255 255 255 0 255 255 255 0 0 0 0
255 0 0 255 0 0 0 255 255 255 0 255 255 255 0 0 0 0
255 0 0 255 0 0 0 255 255 255 0 255 255 255 0 0 0 0
255 0 0 255 0 0 0 255 255 255 0 255 255 255 0 0 0 0
255 0 0 255 0 0 0 255 255 255 0 255 255 255 0 0 0 0
255 0 0 255 0 0 0 255 255 255 0 255 255 255 0 0 0 0
255 0 0 255 0 0 0 255 255 255 0 255 255 255 0 0 0 0
255 0 0 255 0 0 0 255 255 255 0 255 255 255 0 0 0 0
255 0 0 255 0 0 0 255 255 255 0 255 255 255 0 0 0 0
255 0 0 255 0 0 0 255 255 255 0 255 255 255 0 0 0 0
255 0 0 255 0 0 0 255 255 255 0 255 255 255 0 0 0 0