P3
40 50 255
144 17 236 191 237 10 123 93 56 170 215 
198 52 15 203 140 82 254 106 114 122 113 192 23 125 179 21 189 54 91 246 99 111 96 90 178 92 119 77 112 246 253 76 123 174 15 183 92 148 84 71 115 80 51 162 120 64 172 183 221 148 101 20 18 91 235 129 65 39 252 51 158 154 251 247 117 157 156 251 197 93 67 161 253 131 46 165 234 135 199 206 51 119 67 121 235 107 111 6 215 179 234 108 149 176 26 114 138 87 166 205 11 125 183 137 83 91 28 34 217
122 253 165 88 135 207 136 74 239 145 136 194 161 100 220 227 50 237 3 73 118 161 167 210 12 107 235 87 206 83 226 160 162 233 72 141 153 208 140 205 78 127 94 145 94 254 218 119 165 123 186 35 34 52 35 129 79 55 252 114 74 68 102 77 229 124 178 122 128 228 184 41 82 185 78 240 65 241 243 160 136 102 169 8 82 167 122 116 132 88 174 100 160 49 143 106 76 183 43 202 122 166 218 13 90 75 139 183 148 226 59 17 243 56 47 219 149 168 67 217
38 136 22 224 206 84 205 97 199 72 124 119 172 205 184 92 182 197 74 75 146 3 184 122 43 60 64 144 105 136 33 245 243 230 234 89 240 137 28 109 215 200 160 170 220 64 156 183 6 143 147 240 196 166 10 175 61 145 157 88 34 83 22 168 32 17 106 173 80 34 171 227 75 183 64 172 74 128 154 45 233 150 41 2 221 165 226 16 96 112 189 40 221 22 23 94 124 50 138 179 30 29 14 198 63 180 224 96 61 53 7 237 129 25 170 160 70 119 92 132
136 86 162 164 135 91 102 241 218 83 236 183 221 56 42 66 184 31 43 188 10 53 134 232 17 229 75 184 113 20 219 243 174 71 235 84 123 49 51 17 125 210 119 59 101 250 147 37 9 176 232 82 200 101 141 76 10 184 79 137 194 208 132 191 79 73 217 91 141 35 106 99 198 235 30 210 121 52 194 122 36 77 42 50 8 184 205 194 78 139 94 105 20 244 123 113 62 125 161 209 158 176 89 188 84 77 73 47 239 135 60 116 145 118 172 48 223 46 67 98
178 44 201 232 42 65 114 182 18 167 29 226 185 12 159 183 230 108 33 95 109 7 98 67 23 39 203 187 77 0 96 199 1 47 74 236 113 229 59 25 208 172 189 225 75 31 45 92 116 163 128 89 108 137 188 135 43 10 58 68 190 138 213 29 136 21 32 127 112 157 78 82 81 212 79 38 14 172 60 18 148 71 163 100 162 241 126 18 154 221 98 209 90 38 105 10 136 73 4 202 84 180 85 26 177 145 79 127 181 216 128 123 82 22 5 124 223 204 217 221
219 79 148 166 161 109 104 219 182 34 136 131 13 208 248 56 201 190 136 41 86 64 173 236 201 7 194 202 132 182 139 143 129 171 51 131 128 15 190 17 146 191 87 30 16 34 56 19 220 222 178 145 204 234 248 54 173 188 55 58 243 226 113 123 179 106 150 206 226 29 239 56 178 168 255 112 52 123 183 223 45 240 163 48 65 173 130 28 143 57 209 64 203 189 79 66 69 8 36 188 230 98 67 95 30 66 211 121 148 109 67 199 195 142 149 116 128 194 114 249
18 131 87 27 16 204 67 177 97 105 155 210 199 8 11 111 150 186 15 41 239 30 241 254 75 143 51 15 136 199 202 102 187 182 95 33 5 119 80 102 219 47 58 224 0 110 190 203 163 186 125 97 164 251 169 155 111 25 80 154 42 220 62 182 196 182 154 143 235 161 135 120 222 119 181 104 83 57 138 219 62 140 143 46 71 242 9 61 1 184 56 9 137 172 117 44 194 97 100 110 110 234 126 173 186 160 105 208 84 210 215 236 232 171 237 163 201 63 64 133
250 228 110 13 139 175 143 216 196 9 225 250 145 46 167 245 61 24 197 211 150 20 19 135 118 140 226 237 223 87 202 250 161 99 59 231 0 34 103 15 21 177 134 33 203 49 97 161 38 50 153 130 139 131 235 240 93 51 45 54 137 76 73 150 15 166 172 4 187 250 227 7 34 74 40 0 181 93 147 126 3 4 196 130 163 185 120 16 123 56 131 235 237 160 131 202 43 27 138 216 30 234 201 41 59 209 164 76 78 207 86 5 78 97 117 156 21 19 238 223
170 69 206 101 50 208 194 157 223 95 96 41 141 90 1 212 112 65 185 147 184 197 173 124 248 232 49 140 95 180 124 252 174 253 158 118 158 50 68 36 42 138 150 60 158 76 53 191 24 166 47 224 0 87 131 77 71 208 16 237 61 203 173 159 95 63 104 86 61 193 52 41 133 168 122 178 239 231 121 44 145 201 223 109 153 139 200 120 239 52 176 191 148 203 4 214 180 172 236 220 208 156 214 155 199 196 41 193 29 241 11 109 53 55 250 74 203 62 156 44
202 15 104 105 1 119 252 41 108 120 103 215 117 177 112 72 65 120 103 58 238 226 185 116 5 194 3 69 214 15 186 108 144 142 51 31 209 15 166 34 242 71 87 16 46 51 195 59 98 183 134 209 224 215 168 106 203 103 245 11 182 15 4 170 180 190 110 23 196 22 67 12 50 218 98 222 193 147 195 93 96 128 53 36 130 201 130 192 68 217 0 115 250 240 166 65 145 95 61 65 77 248 144 232 96 231 155 246 30 206 21 61 245 251 178 116 37 28 45 93
209 62 4 158 109 234 33 157 91 185 51 13 226 90 196 133 65 73 84 147 25 48 255 96 109 244 219 75 161 193 204 202 255 232 187 30 40 139 57 166 231 41 203 171 12 229 121 164 55 83 99 225 140 14 53 25 167 232 234 69 94 93 0 64 119 196 28 156 93 131 138 215 24 181 82 9 170 71 128 181 1 222 101 19 13 41 197 58 71 66 70 43 197 154 173 155 219 168 101 82 212 110 63 61 253 221 113 233 243 62 172 139 82 20 75 237 0 143 129 75
166 154 4 149 220 150 120 233 90 95 251 71 33 185 204 61 70 208 58 253 75 95 36 135 21 82 80 185 166 83 40 251 189 197 186 242 58 24 62 118 211 12 251 72 118 130 246 26 255 214 23 180 7 117 172 6 192 150 76 95 55 170 31 225 18 66 51 101 198 143 235 48 4 19 187 233 198 60 138 135 160 76 187 44 173 174 29 229 254 191 234 104 233 35 227 255 213 176 242 213 152 152 168 73 48 96 119 107 215 64 173 174 67 225 172 70 190 183 74 236
254 140 197 131 204 82 165 179 70 19 99 18 194 190 230 243 5 22 252 41 168 169 126 26 193 227 107 241 93 200 0 10 74 33 124 209 240 218 54 26 113 82 84 188 54 176 175 145 253 122 197 162 190 12 59 99 108 127 214 92 173 138 170 165 21 231 172 102 227 64 247 252 171 143 253 210 57 243 16 215 190 40 102 137 187 199 215 115 143 118 187 78 28 0 95 195 68 55 210 57 115 142 34 162 71 16 155 127 157 78 17 183 23 140 122 236 180 103 92 220
246 213 45 113 180 58 93 5 130 161 232 37 174 117 64 199 56 37 235 151 251 235 106 255 194 247 160 218 246 231 233 159 234 60 121 44 52 166 253 40 202 70 49 225 117 13 173 228 102 34 109 105 30 145 23 9 32 199 134 78 175 243 193 21 25 95 70 231 128 100 74 6 42 121 125 221 226 222 14 84 49 32 57 93 77 162 42 217 60 234 0 170 133 185 93 236 75 23 228 45 11 210 233 49 91 180 103 41 21 211 189 15 100 194 148 3 23 100 97 246
74 57 43 255 64 192 52 133 33 69 116 48 249 78 192 7 96 69 226 173 188 167 132 154 15 99 230 21 69 115 58 226 1 170 146 165 28 207 183 101 10 218 47 161 188 26 199 157 253 59 235 11 33 74 84 12 21 178 23 206 254 137 176 253 246 168 205 4 113 86 76 195 200 191 34 10 101 237 240 139 15 61 190 232 96 208 177 79 84 126 109 64 203 104 25 52 46 64 32 94 144 162 248 138 210 245 213 66 103 22 47 249 15 63 80 186 11 195 179 227
126 239 40 123 205 189 100 160 142 216 243 20 89 221 146 162 150 20 234 112 11 1 91 142 130 107 108 57 123 13 74 167 47 223 246 175 49 206 76 0 240 54 40 123 147 23 139 252 46 226 132 77 206 178 202 199 80 118 3 165 155 189 217 34 236 240 138 41 210 20 161 205 57 11 51 83 162 28 222 88 103 117 21 193 165 219 76 180 222 113 148 127 231 70 175 21 77 221 130 41 99 184 236 74 45 192 43 135 181 98 123 178 118 16 113 10 163 36 174 234
32 27 218 137 220 142 119 24 15 98 246 167 91 32 53 178 86 105 216 244 58 168 187 57 127 125 59 67 118 115 8 250 90 219 87 92 218 250 152 58 5 176 243 236 5 205 92 158 224 148 92 128 31 29 160 11 148 210 186 36 124 23 38 56 232 185 47 255 171 183 61 10 49 203 36 44 120 138 155 160 150 177 43 24 166 172 234 235 199 205 77 120 81 235 82 226 228 224 218 162 164 178 172 171 212 1 29 233 79 164 26 182 115 68 144 185 248 57 152 200
19 15 112 243 234 131 69 170 80 153 242 241 226 241 106 113 108 14 130 202 196 255 178 174 44 52 38 229 145 3 24 151 155 229 207 69 95 201 39 250 98 150 121 1 252 154 166 41 17 182 32 16 73 255 77 167 82 100 18 215 66 169 18 11 206 38 130 95 186 206 51 56 109 22 159 105 66 223 38 55 92 74 249 228 175 226 194 54 33 104 139 74 1 164 154 70 174 165 232 100 235 24 58 199 238 53 51 125 186 238 177 99 46 242 169 225 225 242 249 79
85 237 38 92 1 122 103 15 176 65 192 247 63 99 102 9 244 120 129 120 164 60 13 214 240 60 191 43 32 8 6 44 191 229 215 183 231 195 190 226 47 128 235 152 9 25 166 92 91 142 34 123 84 142 150 87 95 114 49 69 59 250 233 4 5 18 198 249 13 6 237 214 48 48 246 30 233 181 66 148 100 235 120 233 121 172 199 102 60 198 213 20 114 254 172 184 95 65 63 64 16 75 37 60 254 128 12 162 17 221 0 81 75 133 235 220 203 99 52 45
234 65 30 142 250 7 59 154 51 20 12 122 136 77 12 215 51 109 158 106 199 189 84 30 237 41 40 70 232 57 27 60 200 80 12 184 118 119 43 178 64 49 69 172 81 28 14 216 92 41 116 39 40 88 203 84 84 71 204 96 130 21 31 180 58 232 39 132 214 98 151 118 194 174 184 161 57 206 62 251 127 215 228 102 229 209 128 65 99 147 213 162 68 219 54 105 154 169 73 199 143 139 3 222 89 101 66 228 194 60 143 35 10 76 161 178 65 9 162 44
182 8 254 64 215 221 237 202 209 246 170 104 162 36 192 101 120 70 176 162 65 73 152 63 58 92 76 132 79 15 102 176 23 60 209 33 216 145 138 72 253 208 163 126 129 104 57 243 64 206 4 199 105 22 145 239 18 118 196 250 193 231 61 226 207 231 147 0 124 28 98 149 41 221 126 203 76 209 52 8 186 43 8 155 127 247 192 114 116 112 32 200 37 161 63 231 121 157 209 54 104 27 50 41 176 154 64 79 168 234 48 166 199 55 52 19 208 32 45 181
181 222 233 75 43 85 16 72 172 147 219 187 218 67 194 62 184 16 178 75 192 62 28 216 14 30 124 16 162 203 41 207 179 234 63 83 128 87 117 3 238 53 227 40 27 186 133 182 119 0 223 80 61 47 150 41 43 24 72 12 131 130 52 70 233 142 251 32 159 227 167 196 157 171 80 103 191 144 3 165 140 135 184 37 71 87 161 163 113 50 237 165 40 12 153 148 23 240 109 196 223 16 28 204 161 139 5 55 123 98 180 31 191 134 203 224 64 217 158 187
96 18 2 56 132 205 40 168 48 172 59 243 64 249 158 134 80 167 202 184 12 30 7 224 188 1 133 121 246 118 153 87 177 104 85 146 86 102 157 91 71 2 17 118 183 192 222 111 35 21 242 75 115 158 40 183 219 60 122 1 103 171 113 163 222 125 52 254 105 221 83 245 224 51 27 13 52 122 122 117 159 35 150 230 172 100 137 205 194 183 151 35 230 113 11 221 203 37 102 22 118 208 100 91 95 47 251 229 44 252 71 51 65 176 28 236 184 11 159 244
131 144 8 28 147 220 45 82 218 221 179 41 159 27 16 27 59 132 196 32 79 64 150 128 146 173 251 107 113 60 186 25 137 215 229 56 227 76 178 218 184 168 42 106 237 223 84 190 41 155 207 144 164 236 221 125 232 110 33 157 0 195 164 9 84 47 158 133 171 116 24 191 85 138 114 18 44 189 36 203 54 17 153 11 68 129 6 111 94 15 116 252 63 58 241 54 54 106 51 134 110 211 3 171 11 212 251 171 164 1 181 195 114 198 43 228 170 150 112 25
255 135 110 163 112 221 147 35 197 139 45 172 111 214 6 74 194 72 22 231 29 105 59 241 82 253 34 173 12 217 115 135 141 153 104 65 203 170 166 74 232 46 122 74 100 171 254 171 219 97 1 82 3 147 76 102 231 109 119 37 8 26 237 244 106 162 128 99 161 171 30 101 107 149 181 74 13 248 35 161 176 73 212 246 7 163 47 210 209 68 70 111 129 184 139 10 189 225 209 14 166 143 212 217 233 143 103 16 35 205 114 145 181 136 212 161 175 164 40 53
117 244 181 109 46 230 184 90 27 98 128 49 110 15 176 165 13 228 166 241 123 112 71 26 58 244 110 135 254 14 22 209 138 90 252 231 164 83 122 220 33 192 36 218 0 4 136 186 155 46 128 74 52 7 26 143 121 80 114 28 93 178 167 38 169 199 106 158 113 248 175 217 140 230 9 122 82 163 225 55 169 129 59 137 175 32 41 198 48 243 15 100 187 230 223 35 17 67 70 10 227 243 28 58 221 224 173 221 235 210 54 225 217 124 224 253 54 105 170 13
50 210 48 4 164 249 138 4 143 140 222 76 136 159 166 73 36 149 97 34 90 201 238 113 14 33 207 207 4 1 220 27 79 196 96 144 127 92 176 193 231 49 236 72 210 100 11 227 80 154 180 119 133 167 127 152 53 172 147 98 72 12 235 131 250 105 50 152 116 65 37 75 224 59 82 29 252 197 85 74 219 246 95 148 218 107 20 189 116 161 94 59 38 222 74 246 169 69 74 43 35 227 30 255 81 18 106 245 46 79 105 218 180 7 218 37 212 99 74 51
195 130 18 166 101 209 224 92 189 84 100 132 152 193 246 74 42 115 14 111 14 192 60 15 140 200 15 0 155 169 155 200 200 106 124 126 26 169 137 193 171 254 195 239 113 170 14 20 78 225 120 128 253 118 252 120 117 177 148 49 60 8 209 159 138 30 201 199 177 122 145 14 104 200 78 230 237 80 111 189 233 113 217 151 68 91 56 60 126 68 0 132 220 53 22 222 214 224 215 65 177 76 132 63 113 9 27 29 10 175 47 44 24 174 94 211 81 102 117 163
2 210 5 245 246 8 101 18 21 214 105 191 241 241 89 237 65 250 218 70 178 145 181 26 29 55 104 242 22 99 128 63 202 82 209 180 173 154 4 179 230 114 244 240 72 247 127 170 15 71 228 153 244 165 67 126 152 35 39 177 179 127 205 197 209 45 166 131 38 139 165 120 68 221 185 107 113 179 57 37 36 25 111 26 21 9 113 82 133 219 140 121 84 142 239 17 51 80 99 91 2 72 239 199 18 134 100 169 229 7 89 104 165 42 186 71 115 38 127 75
36 113 7 73 12 247 55 196 138 42 244 178 176 150 75 131 96 17 231 47 35 229 165 70 223 67 59 239 189 116 175 187 247 55 185 10 44 242 147 145 16 162 207 99 182 234 221 211 32 186 19 3 53 240 35 85 254 76 62 176 119 223 16 88 90 15 250 71 73 22 193 113 162 226 60 55 196 147 65 16 196 141 11 23 177 208 95 160 193 68 36 118 199 6 51 0 53 242 77 36 142 255 209 203 86 142 99 32 74 197 174 109 44 220 65 158 171 26 85 224
27 104 71 144 192 43 243 85 14 8 14 123 173 82 171 198 185 231 148 164 156 42 66 139 243 185 124 236 194 10 40 151 50 13 164 26 14 181 188 181 190 87 22 213 225 86 114 19 65 204 132 75 184 255 171 174 91 218 199 100 241 53 46 87 180 79 20 44 243 24 149 105 86 152 176 104 9 192 47 8 17 106 84 189 211 119 104 203 157 149 6 82 216 85 79 76 65 209 177 52 211 171 66 219 123 206 20 7 114 201 132 158 198 212 206 70 186 117 204 215
153 100 210 23 203 9 40 61 240 95 174 248 122 55 187 252 15 187 26 114 52 188 210 40 200 227 216 115 216 173 188 181 199 13 145 198 177 210 36 26 19 129 189 38 208 3 194 155 2 130 69 40 22 36 11 150 53 208 53 106 30 76 138 202 57 162 192 166 29 42 160 116 2 118 146 140 117 190 224 113 72 140 12 223 108 245 28 119 204 66 221 250 59 185 109 20 133 228 216 211 28 34 22 244 96 212 154 128 74 144 97 166 77 153 60 61 18 236 8 217
102 198 92 15 250 170 87 35 28 35 16 50 252 121 235 136 117 173 86 134 47 65 192 40 92 216 153 230 123 23 181 204 75 132 159 150 130 70 247 217 95 229 155 208 26 8 130 225 154 101 251 167 138 151 214 58 92 98 176 162 19 184 168 66 194 112 17 202 44 98 255 199 136 31 100 168 241 18 3 92 74 38 69 69 2 19 241 44 9 183 228 254 57 80 68 192 176 156 30 198 44 125 40 246 227 30 249 64 46 58 45 183 230 202 111 230 247 242 173 94
239 193 3 187 49 70 79 187 226 43 246 161 79 212 166 32 255 209 246 27 34 20 52 155 33 232 82 206 11 204 224 203 44 200 216 110 217 233 36 152 44 255 73 218 219 92 97 154 173 178 85 55 192 228 90 195 27 48 57 96 247 212 174 112 141 179 132 163 132 5 185 131 97 155 246 20 83 48 201 171 43 65 207 220 203 239 206 186 27 140 5 233 45 162 145 204 162 29 215 28 146 3 88 6 249 215 200 100 109 247 82 15 82 176 198 71 186 156 164 64
19 228 33 7 110 83 98 16 14 87 137 92 184 176 202 17 10 127 90 36 153 176 181 28 251 217 217 159 101 242 204 63 170 234 163 241 156 64 202 208 86 205 133 27 170 148 183 237 241 228 16 252 69 49 197 75 136 49 236 16 75 117 213 54 10 148 202 49 128 128 131 153 10 50 236 198 31 98 145 174 26 225 50 133 159 156 140 201 221 41 185 142 237 121 125 235 63 238 194 12 72 212 1 220 93 192 161 73 91 31 138 25 85 134 83 127 99 214 133 129
200 167 138 25 192 30 206 47 108 223 128 132 44 16 249 166 184 103 56 243 11 141 250 153 41 198 160 236 243 70 235 182 35 183 28 181 195 197 80 7 6 120 169 168 161 197 56 186 92 240 65 216 172 3 96 154 92 72 99 65 196 162 168 232 120 77 152 230 37 202 111 241 180 106 196 11 168 115 190 90 102 121 227 98 77 203 5 150 104 215 89 152 4 197 31 169 246 43 123 34 51 101 122 210 141 190 20 229 225 8 202 122 246 15 93 4 122 22 54 133
253 154 153 200 10 144 48 148 63 128 133 54 220 38 8 171 84 27 52 42 104 144 147 170 47 167 200 82 165 148 203 15 240 29 221 213 64 19 165 32 84 59 175 197 193 133 184 202 13 61 206 120 127 44 58 169 110 176 67 207 69 132 150 7 249 39 30 7 14 200 59 32 135 12 187 145 74 233 100 233 131 217 54 75 201 232 248 81 251 238 88 7 142 222 157 169 240 182 139 94 63 238 148 66 127 102 81 90 82 124 19 241 213 66 119 107 193 61 200 170
33 2 235 131 122 70 66 164 134 86 27 46 191 103 82 32 181 9 123 169 132 135 187 61 78 126 84 19 35 32 128 49 221 166 103 240 244 90 203 199 115 95 63 50 243 209 10 1 64 13 17 84 231 43 46 223 39 152 171 8 238 123 102 223 14 107 160 105 29 200 244 20 194 47 143 60 204 197 33 136 164 62 245 153 20 203 2 79 212 157 212 116 8 70 168 121 215 71 159 84 170 3 51 52 90 168 27 141 118 116 137 26 114 116 87 37 132 129 21 126
78 214 124 180 195 29 234 182 177 53 22 255 115 43 146 238 127 14 68 188 31 13 13 78 220 204 212 29 160 23 152 6 175 66 45 104 33 52 45 21 128 94 113 239 251 3 81 105 143 189 253 124 139 177 36 97 73 114 71 157 41 221 112 69 29 166 185 196 88 67 250 14 147 116 186 152 76 84 68 40 151 158 175 1 196 188 72 157 155 174 53 189 105 208 194 6 76 242 190 152 97 17 2 23 173 93 218 66 228 93 247 248 207 172 73 67 148 21 60 95
109 200 86 32 182 13 15 204 169 79 180 1 46 246 179 176 149 83 140 22 122 42 227 112 123 119 102 36 166 22 53 38 180 198 231 19 243 122 164 177 186 113 51 137 104 123 138 102 238 218 113 17 109 70 6 121 165 246 171 83 197 193 191 175 224 119 174 135 43 195 62 104 136 248 246 101 94 9 118 224 2 181 51 161 28 55 114 208 207 99 238 224 231 195 240 17 137 0 137 135 227 56 103 139 184 147 98 22 57 107 229 197 77 176 154 249 70 167 225 222
169 240 167 131 88 47 227 197 23 177 48 207 64 61 124 191 139 105 89 122 37 101 128 198 16 167 191 110 49 198 251 29 83 202 167 102 122 105 110 49 251 24 192 180 36 5 229 99 108 68 88 216 206 116 66 84 99 211 223 157 229 195 90 62 54 142 27 121 176 167 140 105 104 57 49 125 63 187 100 46 7 98 195 126 10 207 184 194 236 116 130 166 21 84 219 145 107 165 66 131 30 38 218 251 163 30 66 166 33 92 138 167 34 236 154 146 220 47 24 234
153 102 194 27 38 56 167 190 155 111 211 56 85 84 253 234 242 54 133 40 175 100 235 162 22 190 220 144 56 19 31 191 22 115 163 68 107 210 237 241 243 227 235 162 3 26 68 203 118 81 38 144 236 131 29 53 177 235 177 249 159 121 31 94 198 80 173 185 218 174 207 72 184 98 199 155 215 115 137 52 200 248 98 185 136 159 253 194 216 88 138 73 25 26 206 78 205 22 151 247 162 184 218 165 77 238 19 254 45 3 57 81 103 71 253 4 232 106 18 39
112 133 101 22 164 185 158 169 82 119 162 120 159 64 108 89 75 133 194 61 232 171 93 54 104 243 198 44 226 142 90 129 80 204 190 55 190 153 151 15 50 236 208 2 42 191 183 228 164 160 216 193 21 90 146 121 95 79 198 55 97 255 19 147 29 90 54 108 59 90 133 233 234 171 107 181 207 159 157 152 235 109 77 100 34 130 85 109 125 134 227 190 76 64 202 115 110 122 78 107 0 98 39 220 171 253 194 57 48 136 13 19 71 119 161 183 232 222 240 16
243 195 94 46 214 117 220 92 251 194 181 133 226 243 237 180 103 139 185 52 80 211 185 186 3 11 136 214 64 120 233 24 149 9 2 232 190 193 3 48 188 22 112 204 156 40 134 82 123 37 208 145 133 5 242 158 181 142 21 130 79 65 104 136 235 117 195 46 189 191 12 134 204 199 245 26 56 225 126 79 96 16 51 123 240 150 99 153 213 24 86 212 249 246 4 135 128 161 58 29 42 226 248 88 116 49 76 39 132 41 79 109 50 232 152 171 133 240 152 81
35 151 42 2 249 150 97 67 134 189 79 222 67 33 44 233 181 103 185 76 20 89 250 80 144 195 112 40 61 123 23 230 244 117 182 125 192 187 44 59 201 246 230 8 50 89 69 84 75 117 74 4 100 254 31 77 129 60 175 103 182 46 31 156 188 172 69 10 10 91 65 165 36 255 67 49 80 182 10 115 217 195 146 8 248 249 115 228 174 200 138 72 170 39 66 191 123 29 70 247 246 123 94 231 4 96 53 76 159 190 121 54 128 214 142 238 79 162 71 169
67 5 120 99 37 148 250 163 134 198 122 122 0 96 122 114 25 62 44 253 80 171 206 231 181 118 207 135 156 164 135 86 33 85 8 30 193 108 70 208 227 116 8 99 210 102 82 88 143 42 14 71 24 122 129 220 48 163 1 142 242 243 174 213 157 130 181 233 159 108 12 150 66 50 71 225 197 22 65 112 54 80 171 41 191 78 46 201 214 205 158 7 171 158 212 159 251 184 179 113 173 84 102 105 0 170 125 239 203 118 32 222 187 224 39 15 158 154 121 25
51 80 68 65 63 148 119 9 106 224 190 176 0 59 230 225 70 36 128 190 17 173 44 58 55 100 241 19 171 221 145 187 251 218 112 206 50 64 139 3 102 148 244 254 186 152 186 111 6 224 147 123 168 192 1 34 106 235 40 99 28 1 222 6 232 60 140 146 154 47 211 163 195 90 62 63 124 89 225 91 20 108 196 208 160 7 171 212 121 139 219 33 200 51 198 144 12 242 12 9 27 64 33 193 23 209 53 183 142 40 140 72 8 19 124 247 242 204 92 151
192 178 170 99 47 113 187 131 66 103 187 102 121 175 138 126 8 50 155 49 194 118 201 126 244 246 67 246 139 59 211 127 243 251 132 98 23 184 215 105 73 151 194 73 88 254 247 93 78 66 191 57 199 153 120 204 137 93 169 202 146 16 129 190 108 64 61 113 200 52 31 121 48 179 12 122 187 197 78 152 6 155 150 38 26 232 86 82 200 114 47 111 115 211 64 242 151 250 137 66 51 161 226 241 125 155 185 201 73 135 189 26 220 148 137 188 201 190 231 128
247 154 57 172 109 114 120 100 45 8 31 94 186 94 193 135 58 37 83 174 26 223 190 17 15 243 115 0 129 161 169 115 13 236 90 151 168 226 123 92 172 12 87 40 87 229 141 158 188 90 178 1 176 161 103 62 182 193 172 172 100 94 219 241 37 5 210 35 192 240 73 113 251 17 244 62 238 237 153 16 116 121 110 251 115 53 243 2 219 90 48 112 70 204 133 108 95 250 97 168 26 176 68 210 108 52 175 137 45 38 78 40 3 37 31 94 86 247 236 167
195 73 224 142 40 3 164 76 4 27 168 81 122 89 74 32 42 206 128 249 207 110 253 63 73 240 112 234 217 32 224 68 167 62 230 50 212 52 252 25 125 21 242 224 196 185 32 27 131 203 210 153 151 118 4 65 59 167 119 133 206 42 61 233 19 50 1 101 88 167 13 39 156 128 90 136 170 63 181 24 177 162 78 64 168 198 254 44 164 174 4 184 144 245 225 223 141 99 12 186 187 167 240 252 174 39 187 193 200 109 208 241 63 220 250 51 156 197 41 198