P2
2 5 255
1 2 3 4 5
6 6 6 6 6
